<?xml version="1.0" encoding="UTF-8" standalone="no"?>
<!-- Created with Inkscape (http://www.inkscape.org/) -->

<svg
   width="300mm"
   height="300mm"
   viewBox="0 0 300 300"
   version="1.1"
   id="svg5"
   inkscape:version="1.1.1 (1:1.1+202109281949+c3084ef5ed)"
   sodipodi:docname="add_data.svg"
   xmlns:inkscape="http://www.inkscape.org/namespaces/inkscape"
   xmlns:sodipodi="http://sodipodi.sourceforge.net/DTD/sodipodi-0.dtd"
   xmlns="http://www.w3.org/2000/svg"
   xmlns:svg="http://www.w3.org/2000/svg">
  <sodipodi:namedview
     id="namedview7"
     pagecolor="#505050"
     bordercolor="#eeeeee"
     borderopacity="1"
     inkscape:pageshadow="0"
     inkscape:pageopacity="0"
     inkscape:pagecheckerboard="0"
     inkscape:document-units="mm"
     showgrid="false"
     inkscape:zoom="0.32693273"
     inkscape:cx="720.33168"
     inkscape:cy="438.92822"
     inkscape:window-width="1366"
     inkscape:window-height="715"
     inkscape:window-x="0"
     inkscape:window-y="25"
     inkscape:window-maximized="1"
     inkscape:current-layer="layer1"
     fit-margin-top="0"
     fit-margin-left="0"
     fit-margin-right="0"
     fit-margin-bottom="0"
     inkscape:snap-page="true"
     inkscape:snap-global="false" />
  <defs
     id="defs2">
    <symbol
       id="BarberShop">
      <title
         id="title1873">Barber Shop</title>
      <g
         style="stroke:none"
         id="g1883">
        <!-- Scissors -->
        <path
           d="m 6.0854167,10.31875 v 4.365625 a 1.7197917,1.7197917 0 1 0 0.79375,-1.719792 V 8.73125 l -0.79375,-6.8791667 a 0.26722917,0.26722917 0 0 0 -0.5291667,0 L 4.7625,8.73125 v 4.233333 a 1.7197917,1.7197917 0 1 0 0.79375,1.5875 V 10.31875 Z m 1.5875,5.688542 c -0.079375,0.529166 0.1058333,1.455208 0.47625,1.799166 0.396875,0.343959 0.8466666,-0.105833 0.6614583,-0.47625 C 8.5989583,16.959792 8.334375,16.748125 8.5460417,15.875 Z M 4.7625,14.419792 a 0.92604167,0.92604167 0 0 1 -1.8520833,0 0.92604167,0.92604167 0 1 1 1.8520833,0 z m 3.96875,0 a 0.92604167,0.92604167 0 0 1 -1.8520833,0 0.92604167,0.92604167 0 1 1 1.8520833,0 z"
           id="path1875"
           style="stroke-width:0.264583" />
        <!-- Comb -->
        <path
           d="m 7.9375,3.4395833 c -0.5291667,0 -0.5291667,0.6614584 0,0.6614584 h 2.116667 V 4.365625 H 7.9375 c -0.5291667,0 -0.5291667,0.6614583 0,0.6614583 h 2.116667 V 5.2916667 H 7.9375 c -0.5291667,0 -0.5291667,0.6614583 0,0.6614583 h 2.116667 V 6.2177083 H 7.9375 c -0.5291667,0 -0.5291667,0.6614584 0,0.6614584 h 2.116667 V 7.14375 H 7.9375 c -0.5291667,0 -0.5291667,0.6614583 0,0.6614583 h 2.116667 V 8.0697917 H 7.9375 c -0.5291667,0 -0.5291667,0.6614583 0,0.6614583 h 2.116667 V 8.9958333 H 7.9375 c -0.5291667,0 -0.5291667,0.6614584 0,0.6614584 h 2.116667 V 9.921875 H 7.9375 c -0.5291667,0 -0.5291667,0.661458 0,0.661458 h 2.116667 v 6.35 a 0.79375,0.79375 0 0 0 1.5875,0 V 2.6458333 A 1.0583333,1.0583333 0 0 0 10.583333,1.5875 H 7.9375 c -0.5291667,0 -0.5291667,0.6614583 0,0.6614583 h 2.116667 V 2.5135417 H 7.9375 c -0.5291667,0 -0.5291667,0.6614583 0,0.6614583 h 2.116667 v 0.2645833 z"
           id="path1877"
           style="stroke-width:0.264583" />
        <!-- Man -->
        <circle
           cx="15.345834"
           cy="2.6458333"
           r="0.79374999"
           id="circle1879"
           style="stroke-width:0.264583" />
        <path
           d="M 13.49375,4.6302083 V 7.14375 a 0.33072917,0.33072917 0 0 0 0.661458,0 V 4.8947917 H 14.2875 V 11.1125 a 0.463021,0.463021 0 0 0 0.926042,0 V 7.540625 h 0.264583 V 11.1125 a 0.463021,0.463021 0 0 0 0.926042,0 V 4.8947917 h 0.132291 V 7.14375 a 0.3307295,0.3307295 0 0 0 0.661459,0 V 4.6302083 A 1.0583333,1.0583333 0 0 0 16.139583,3.571875 h -1.5875 A 1.0583333,1.0583333 0 0 0 13.49375,4.6302083 Z"
           id="path1881"
           style="stroke-width:0.264583" />
      </g>
    </symbol>
  </defs>
  <g
     inkscape:label="Layer 1"
     inkscape:groupmode="layer"
     id="layer1"
     transform="translate(129.35284,581.99119)">
    <g
       id="g5116"
       transform="matrix(57.429192,0,0,57.429192,5191.0769,30733.093)">
      <g
         id="g5110">
        <path
           id="circle3533"
           style="fill:#ffffff;stroke:none;stroke-width:0.264583"
           d="m -89.903576,-543.32523 a 0.79374999,0.79374999 0 0 1 -0.79375,0.79375 0.79374999,0.79374999 0 0 1 -0.79375,-0.79375 0.79374999,0.79374999 0 0 1 0.79375,-0.79375 0.79374999,0.79374999 0 0 1 0.79375,0.79375 z" />
        <path
           style="fill:#ffffff;stroke:none;stroke-width:0.999999"
           d="m 274.78711,97.738281 a 3.9999999,3.9999999 0 0 0 -4,3.992189 h 14 a 3.9999999,3.9999999 0 0 0 -4,-3.992189 z"
           transform="matrix(0.26458333,0,0,0.26458333,-164.19536,-568.13666)"
           id="path3535" />
      </g>
      <path
         id="rect4754"
         style="opacity:1;fill:#ffffff;stroke-width:2.90514;stroke-linecap:round;stroke-linejoin:round;paint-order:stroke fill markers"
         d="m -88.277553,-544.11898 c -0.07585,0 -0.13687,0.0612 -0.13687,0.13717 v 0.49035 h -0.490347 c -0.07584,0 -0.136869,0.061 -0.136869,0.13686 0,0.0758 0.06102,0.13687 0.136869,0.13687 h 0.490347 v 0.49036 c 0,0.0758 0.06102,0.13686 0.13687,0.13686 0.07584,0 0.137174,-0.061 0.137174,-0.13686 v -0.49036 h 0.49004 c 0.07584,0 0.137174,-0.061 0.137174,-0.13687 0,-0.0758 -0.06132,-0.13686 -0.137174,-0.13686 h -0.49004 v -0.49035 c 0,-0.0758 -0.06132,-0.13717 -0.137174,-0.13717 z" />
    </g>
  </g>
</svg>
