<?xml version="1.0" encoding="UTF-8" standalone="no"?>
<!-- Created with Inkscape (http://www.inkscape.org/) -->

<svg
   width="121"
   height="121"
   viewBox="0 0 121 121"
   version="1.1"
   id="svg5"
   inkscape:version="1.1.1 (1:1.1+202109281949+c3084ef5ed)"
   sodipodi:docname="word_icon.svg"
   xmlns:inkscape="http://www.inkscape.org/namespaces/inkscape"
   xmlns:sodipodi="http://sodipodi.sourceforge.net/DTD/sodipodi-0.dtd"
   xmlns="http://www.w3.org/2000/svg"
   xmlns:svg="http://www.w3.org/2000/svg">
  <sodipodi:namedview
     id="namedview7"
     pagecolor="#505050"
     bordercolor="#eeeeee"
     borderopacity="1"
     inkscape:pageshadow="0"
     inkscape:pageopacity="0"
     inkscape:pagecheckerboard="0"
     inkscape:document-units="px"
     showgrid="false"
     inkscape:zoom="2.2625"
     inkscape:cx="68.729282"
     inkscape:cy="83.314917"
     inkscape:window-width="1366"
     inkscape:window-height="715"
     inkscape:window-x="0"
     inkscape:window-y="25"
     inkscape:window-maximized="1"
     inkscape:current-layer="layer1"
     inkscape:snap-page="true"
     fit-margin-top="0"
     fit-margin-left="0"
     fit-margin-right="0"
     fit-margin-bottom="0" />
  <defs
     id="defs2" />
  <g
     inkscape:label="Layer 1"
     inkscape:groupmode="layer"
     id="layer1"
     transform="translate(-47.783238,7.8346287)">
    <g
       id="g1685">
      <path
         d="m 56.303353,41.368101 v -8.96 h 17.76 v 8.96 z m 17.76,-22.28 v 8.6 h -17.76 v -8.6 z m -22.68,-4.8 v 34.48 h 4.92 v -2.6 h 17.76 v 2.52 h 5.12 v -34.4 z"
         style="font-weight:bold;font-size:40px;line-height:1.25;font-family:Montserrat;-inkscape-font-specification:Montserrat;fill:#ffffff"
         id="path1648" />
      <path
         d="m 107.66328,37.648101 v -8.8 c 1.8,3.24 3.96,6.24 6.36,8.8 z m -11.280003,0 c 2.36,-2.56 4.480003,-5.52 6.280003,-8.72 v 8.72 z m 26.440003,-13.2 v -4.8 h -15.16 v -7.72 h -5 v 7.72 H 87.623277 v 4.8 h 12.2 c -3.08,6.16 -8.12,11.92 -13.76,15 1.12,0.92 2.64,2.76 3.48,3.96 2.2,-1.4 4.32,-3.12 6.24,-5.12 v 4.2 h 6.880003 v 6.76 h 5 v -6.76 h 6.64 v -4.56 c 2,2.12 4.2,3.92 6.52,5.36 0.84,-1.36 2.48,-3.36 3.68,-4.32 -5.72,-3 -10.84,-8.52 -13.96,-14.52 z"
         style="font-weight:bold;font-size:40px;line-height:1.25;font-family:Montserrat;-inkscape-font-specification:Montserrat;fill:#ffffff"
         id="path1650" />
      <path
         d="m 139.9032,13.128101 h -11.28 v 3.6 h 11.28 z m 1.44,5.52 h -14.84 v 3.76 h 14.84 z m -1.44,5.72 h -11.52 v 3.56 h 11.52 z m -11.52,9.16 h 11.52 v -3.6 h -11.52 z m 7.72,5.8 v 4.56 h -3.84 v -4.56 z m 4.08,-3.76 h -11.92 v 13.64 h 4 v -1.56 h 7.92 z m 16.64,2.96 v 4.96 h -8.36 v -4.96 z m -12.84,10.72 h 4.48 v -1.56 h 8.36 v 1.4 h 4.68 v -14.8 h -17.52 z m 12.04,-25.32 v 4.08 h -5.4 c 0.24,-1.24 0.48,-2.64 0.72,-4.08 z m 4.56,4.08 v -8.12 h -8.56 l 0.4,-2.8 h 10.2 v -4.08 h -20.04 v 4.08 h 5.2 c -0.12,0.92 -0.28,1.84 -0.4,2.8 h -4.16 v 4.04 h 3.52 c -0.24,1.44 -0.48,2.84 -0.72,4.08 h -4.92 v 4.16 h 22.88 v -4.16 z"
         style="font-weight:bold;font-size:40px;line-height:1.25;font-family:Montserrat;-inkscape-font-specification:Montserrat;fill:#ffffff"
         id="path1652" />
      <path
         d="m 70.223314,59.562642 -5.84,-1.92 c -0.36,1.36 -1.2,3.2 -1.8,4.2 -2,3.44 -5.48,8.6 -12.48,12.88 l 4.48,3.32 c 3.92,-2.68 7.4,-6.2 10.08,-9.68 h 11.24 c -0.64,3 -2.96,7.8 -5.68,10.92 -3.48,3.96 -7.92,7.44 -16.12,9.88 l 4.72,4.24 c 7.52,-2.96 12.36,-6.64 16.16,-11.28 3.6,-4.48 5.88,-9.8 6.96,-13.36 0.32,-1 0.88,-2.12 1.32,-2.88 l -4.08,-2.52 c -0.92,0.28 -2.24,0.48 -3.48,0.48 h -8.04 c 0.04,-0.08 0.08,-0.12 0.12,-0.2 0.48,-0.88 1.52,-2.68 2.44,-4.08 z"
         style="font-weight:bold;font-size:40px;line-height:1.25;font-family:Montserrat;-inkscape-font-specification:Montserrat;fill:#ffffff"
         id="path1641" />
      <path
         d="m 96.223238,60.082642 v 5.16 c 1.16,-0.08 2.88,-0.12 4.160002,-0.12 h 15.32 c 1.44,0 3.32,0.04 4.4,0.12 v -5.16 c -1.12,0.16 -3.08,0.2 -4.32,0.2 h -15.4 c -1.360002,0 -3.040002,-0.04 -4.160002,-0.2 z m 27.240002,11.6 -3.56,-2.2 c -0.56,0.24 -1.64,0.4 -2.92,0.4 H 97.183238 c -1.24,0 -2.96,-0.12 -4.64,-0.24 v 5.2 c 1.68,-0.16 3.68,-0.2 4.64,-0.2 h 19.320002 c -0.72,2.24 -1.96,4.72 -4.12,6.92 -3.04,3.12 -7.84,5.76 -13.840002,7 l 3.960002,4.52 c 5.12,-1.44 10.24,-4.16 14.28,-8.64 3,-3.32 4.72,-7.2 5.92,-11.08 0.16,-0.44 0.48,-1.16 0.76,-1.68 z"
         style="font-weight:bold;font-size:40px;line-height:1.25;font-family:Montserrat;-inkscape-font-specification:Montserrat;fill:#ffffff"
         id="path1643" />
      <path
         d="m 157.66316,57.042642 -3.28,1.36 c 0.76,1.16 1.56,2.56 2.24,3.88 -0.72,0.08 -1.4,0.08 -1.88,0.08 h -18.52 c -1.32,0 -3.6,-0.16 -4.76,-0.32 v 5.64 c 1.04,-0.08 2.92,-0.16 4.76,-0.16 h 18.6 c -0.52,3.44 -2.04,7.96 -4.68,11.28 -3.24,4.08 -7.76,7.56 -15.68,9.4 l 4.36,4.8 c 7.16,-2.32 12.48,-6.28 16.08,-11.08 3.36,-4.44 5.08,-10.64 6.04,-14.56 0.2,-0.84 0.48,-2 0.88,-2.76 l -2.56,-1.68 1.48,-0.6 c -0.72,-1.44 -2.04,-3.76 -3.08,-5.28 z m 5.6,-1 -3.32,1.32 c 1.08,1.48 2.32,3.76 3.2,5.4 l 3.32,-1.44 c -0.76,-1.4 -2.2,-3.84 -3.2,-5.28 z"
         style="font-weight:bold;font-size:40px;line-height:1.25;font-family:Montserrat;-inkscape-font-specification:Montserrat;fill:#ffffff"
         id="path1645" />
    </g>
  </g>
</svg>
